<svg width="16" height="16" viewBox="0 0 16 16" fill="none" xmlns="http://www.w3.org/2000/svg">
<g clip-path="url(#clip0_24_2443)">
<path d="M1.66669 8.00008C1.66669 5.01452 1.66669 3.52174 2.59418 2.59424C3.52168 1.66675 5.01446 1.66675 8.00002 1.66675C10.9856 1.66675 12.4784 1.66675 13.4059 2.59424C14.3334 3.52174 14.3334 5.01452 14.3334 8.00008C14.3334 10.9856 14.3334 12.4784 13.4059 13.4059C12.4784 14.3334 10.9856 14.3334 8.00002 14.3334C5.01446 14.3334 3.52168 14.3334 2.59418 13.4059C1.66669 12.4784 1.66669 10.9856 1.66669 8.00008Z" stroke="#7DDF70" stroke-width="1.5" stroke-linejoin="round"/>
<path d="M11 8C11 9.65687 9.65687 11 8 11C6.34315 11 5 9.65687 5 8C5 6.34315 6.34315 5 8 5C9.65687 5 11 6.34315 11 8Z" stroke="#7DDF70" stroke-width="1.5"/>
<path d="M11.6719 4.33325H11.6659" stroke="#7DDF70" stroke-width="2" stroke-linecap="round" stroke-linejoin="round"/>
</g>
<defs>
<clipPath id="clip0_24_2443">
<rect width="16" height="16" fill="white"/>
</clipPath>
</defs>
</svg>
