<svg width="14" height="16" viewBox="0 0 14 16" fill="none" xmlns="http://www.w3.org/2000/svg">
<path d="M4.33333 14.6666V12.5052C4.33333 12.1063 4.45593 11.7597 4.6536 11.4465C4.7892 11.2317 4.69633 10.9269 4.4514 10.8595C2.42263 10.3018 1 9.40505 1 6.43062C1 5.65732 1.25337 4.93029 1.69874 4.29752C1.80958 4.14004 1.86499 4.0613 1.87832 3.98998C1.89164 3.91867 1.86848 3.8256 1.82215 3.63946C1.63359 2.88186 1.64581 2.07738 1.92881 1.35207C1.92881 1.35207 2.51361 1.16153 3.84465 1.99304C4.14855 2.1829 4.3005 2.27782 4.43433 2.29906C4.56813 2.32029 4.74707 2.27581 5.10487 2.18686C5.5942 2.06522 6.0984 1.99992 6.66667 1.99992C7.23493 1.99992 7.73913 2.06522 8.22847 2.18686C8.58627 2.27581 8.7652 2.32029 8.899 2.29906C9.03287 2.27782 9.1848 2.1829 9.48867 1.99304C10.8197 1.16153 11.4045 1.35207 11.4045 1.35207C11.6875 2.07738 11.6997 2.88186 11.5112 3.63946C11.4649 3.8256 11.4417 3.91867 11.455 3.98998C11.4683 4.0613 11.5237 4.14004 11.6346 4.29752C12.0799 4.93029 12.3333 5.65732 12.3333 6.43062C12.3333 9.40505 10.9107 10.3018 8.88193 10.8595C8.637 10.9269 8.54413 11.2317 8.67973 11.4465C8.8774 11.7597 9 12.1063 9 12.5052V14.6666" stroke="#7DDF70" stroke-width="1.5" stroke-linecap="round" stroke-linejoin="round"/>
</svg>
