<svg width="1440" height="506" viewBox="0 0 1440 506" fill="none" xmlns="http://www.w3.org/2000/svg">
<path fill-rule="evenodd" clip-rule="evenodd" d="M-276 67.8273C-179.667 23.9849 109.5 -43.2612 495.5 38.4939C978 140.688 1572 91.4832 1744 38.4939V471H1705L1640 506L1575 471L1510 506L1445 471L1380 506L1315 471L1250 506L1185 471L1120 506L1055 471L990 506L925 471L860 506L795 471L730 506L665 471L600 506L535 471L470 506L405 471L340 506L275 471L210 506L145 471L80 506L15 471L-50 506L-115 471L-180 506L-245 471H-276V67.8273Z" fill="url(#paint0_linear_22_2466)"/>
<defs>
<linearGradient id="paint0_linear_22_2466" x1="453.5" y1="536" x2="573" y2="-19" gradientUnits="userSpaceOnUse">
<stop stop-color="#C6FEBD"/>
<stop offset="0.675" stop-color="#E9FFE5"/>
</linearGradient>
</defs>
</svg>
